<?xml version="1.0" encoding="utf-8"?>
<!-- Generator: Adobe Illustrator 24.3.0, SVG Export Plug-In . SVG Version: 6.00 Build 0)  -->
<svg version="1.1" id="Layer_3" xmlns="http://www.w3.org/2000/svg" xmlns:xlink="http://www.w3.org/1999/xlink" x="0px" y="0px"
	 viewBox="0 0 522.7 503.1" style="enable-background:new 0 0 522.7 503.1;" xml:space="preserve">
<style type="text/css">
	.st0{fill:url(#SVGID_1_);}
	.st1{fill:url(#XMLID_2_);}
</style>
<linearGradient id="SVGID_1_" gradientUnits="userSpaceOnUse" x1="261.3333" y1="503.0655" x2="261.3333" y2="264.3951">
	<stop  offset="0" style="stop-color:#7EBCC9"/>
	<stop  offset="1" style="stop-color:#94C7D2"/>
</linearGradient>
<path class="st0" d="M424.5,264.4c0,0,129,92.8-62.5,150.9l-100.7,87.7l-100.7-87.7c-191.5-58.1-62.5-150.9-62.5-150.9
	S-42.5,352.1,13,412.5c51.3,55.9,247.9,90.5,248.4,90.6l0,0c0,0,0,0,0,0l0,0l0,0c0.5-0.1,197.1-34.7,248.4-90.6
	C565.2,352.1,424.5,264.4,424.5,264.4z"/>
<linearGradient id="XMLID_2_" gradientUnits="userSpaceOnUse" x1="261.3333" y1="396.5784" x2="261.3333" y2="-9.094947e-13">
	<stop  offset="0" style="stop-color:#7EBCC9"/>
	<stop  offset="1" style="stop-color:#CBE4E9"/>
</linearGradient>
<path id="XMLID_259_" class="st1" d="M365.1,194.3c4.3-9.8,14.6-15.3,24.1-20.1c-12-0.8-25.4-0.8-34.3,7.3
	c-6.5,5.9-9.2,15-10.1,23.8c-1.7,16.4,1.8,33-0.4,49.3c-1,7.9-3.8,16.1-10,21c-16.9,13.1-49-2.2-44.4-24.6
	c5.7-28.1,33.2-43.4,44.1-68.7c13.9-32.3,2.2-70.9-27.5-89.7c0,0,8.2,14.7,6.7,26.4c-1.1,8.7-5,17.2-13.7,20.3
	c-25,8.6-60.2-7.3-68.5-32.7c-3.9-11.9-1.8-26,6.5-35.4c7.6-8.6,19.2-12.5,27.9-19.9C279.7,39,287.8,19.5,276.2,0
	c0,0,1.6,9-6.1,14.9c-12.5,9.6-28.5,12.6-43.9,16.1c-15.4,3.5-31.8,9.4-39.7,23c-4.3,7.4-5.6,16.3-5.2,24.8
	c1.1,23.7,13.9,43.7,29,61.2c14.4,16.8,31.4,34.7,33.4,57.9c1.2,13.4-3.4,27.6-13.8,36.1c-9,7.3-24.8,10.6-34.6,2.9
	c-7.5-5.9-7.6-13.8-6.5-22.4c1.4-10.7,0.1-21.9-4.4-31.7c-8.1-17.8-27.9-30.7-47.8-26.8c10.7,3.7,18.8,13.2,22.1,24
	c6.2,20.2-5.3,35.6-11.9,53.6c-7.5,20.3-13.6,41.5-13.4,63.3c0.2,32.2,15.5,58.1,42.1,75.6c8.4,5.5,17.2,10.3,26.4,14.4
	c8.6,3.8,18.6,8.5,28,9.7c-2.6-3.9-5.9-7.5-8.7-11.3c-5.2-7-10.2-14.4-13.8-22.3c-12.4-27.3-7.7-59.9,10.7-83.3
	c18.8-23.9,45.7-38.9,50.7-71.4c2.8-18.1-1.5-37.2-11.8-52.4c6.3,2,11.8,6.1,16.3,11c6.7,7.3,11.2,16.6,12.7,26.4
	c2.7,16.6-2.9,33.5-10.1,48.7c-7.2,15.2-16,29.8-20.5,46.1c-3.9,14-5.3,35.9,6,47.2c3.3-1.7,5.1-10.4,7.8-13.8
	c13.4-16.9,36.7-26,58-21.3c-1.9-0.4-7.4,3.9-9.1,5c-3.1,2.1-6.1,4.4-8.9,6.9c-5.5,5.1-10.2,11-13.9,17.6
	c-5.7,10.1-9.2,21.2-8.5,32.9c0.7,11.8,5.3,23.6,13.6,32.1c-1.4-12.9,6.2-25.3,16-33.6c20.4-17.3,51.9-23,62.9-50.1
	c12-29.6-7.7-62.5-14.4-90.9C362.9,211.4,361.6,202.3,365.1,194.3z"/>
</svg>
